# xmcd CD database file
#
# Track frame offsets:
#	150
#	12515
#	26398
#	38625
#	51783
#	61643
#	74735
#	84833
#	98093
#	110710
#	125010
#	137573
#	150293
#	162183
#	175295
#	185048
#	194695
#	207455
#	220208
#	231458
#	246250
#	256103
#
# Disc length: 3625 seconds
#
# Revision: 2
# Processed by: cddbd v1.4PL0 Copyright (c) Steve Scherf et al.
# Submitted via: CDex 1.40Release
#
DISCID=390e2716
DTITLE=Howlin' Wolf - Spoonful
DYEAR=1992
DGENRE=Blues
TTITLE0=Spoonful
TTITLE1=Smokestack Lightning
TTITLE2=Back Door Man
TTITLE3=Tell Me
TTITLE4=Shake For Me
TTITLE5=Evil
TTITLE6=Who's Been Talking
TTITLE7=I'm Leavin' You
TTITLE8=Tell Me What I've Done
TTITLE9=Watergate Blues
TTITLE10=Forty Four
TTITLE11=I Asked For Water
TTITLE12=Louise
TTITLE13=Tail Dragger
TTITLE14=Down In The Bottom
TTITLE15=Natchez Burnin'
TTITLE16=No Place To Go
TTITLE17=Bluebird Blues
TTITLE18=Cadillac Daddy
TTITLE19=Decoration Day Blues
TTITLE20=Come Back Home
TTITLE21=I Got A Woman
EXTD=YEAR: 1992 ID3G: 0
EXTT0=
EXTT1=
EXTT2=
EXTT3=
EXTT4=
EXTT5=
EXTT6=
EXTT7=
EXTT8=
EXTT9=
EXTT10=
EXTT11=
EXTT12=
EXTT13=
EXTT14=
EXTT15=
EXTT16=
EXTT17=
EXTT18=
EXTT19=
EXTT20=
EXTT21=
PLAYORDER=
